<?xml version="1.0" encoding="UTF-8"?>
<svg width="100pt" height="100pt" version="1.1" viewBox="0 0 100 100" xmlns="http://www.w3.org/2000/svg">
 <g>
  <path d="m50 98.602c-26.602 0-48.301-21.699-48.301-48.301 0-26.602 21.699-48.402 48.301-48.402s48.301 21.699 48.301 48.301c0 26.602-21.699 48.402-48.301 48.402zm0-90.703c-23.301 0-42.301 19-42.301 42.301s19 42.301 42.301 42.301 42.301-19 42.301-42.301-18.902-42.301-42.301-42.301z"/>
  <path d="m50 62.301c-1.5 0-2.6992-1.1992-2.6992-2.6992v-34.301c0-1.5 1.1992-2.6992 2.6992-2.6992s2.6992 1.1992 2.6992 2.6992v34.398c0 1.4023-1.1992 2.6016-2.6992 2.6016z"/>
  <path d="m53.199 72c0 4.2656-6.3984 4.2656-6.3984 0s6.3984-4.2656 6.3984 0"/>
 </g>
</svg>
