<?xml version="1.0" encoding="UTF-8"?>
<svg width="100pt" height="100pt" version="1.1" viewBox="0 0 100 100" xmlns="http://www.w3.org/2000/svg">
 <g>
  <path d="m50 8.3281c-22.988 0-41.668 18.68-41.668 41.668 0 22.988 18.68 41.668 41.668 41.668s41.668-18.68 41.668-41.668c0-22.988-18.68-41.668-41.668-41.668zm0 4.168c20.734 0 37.5 16.766 37.5 37.5s-16.766 37.5-37.5 37.5-37.5-16.766-37.5-37.5 16.766-37.5 37.5-37.5z"/>
  <path d="m65.512 31.539l-33.855 33.855 2.9453 2.9453 33.855-33.855z" fill-rule="evenodd"/>
  <path d="m34.422 31.238l-2.9453 2.9453 34.098 34.098 2.9453-2.9453z" fill-rule="evenodd"/>
 </g>
</svg>
