<?xml version="1.0" encoding="UTF-8"?>
<svg width="100pt" height="100pt" version="1.1" viewBox="0 0 100 100" xmlns="http://www.w3.org/2000/svg">
 <g>
  <path d="m50 0c-27.602 0-50 22.398-50 50s22.398 50 50 50 50-22.398 50-50-22.398-50-50-50zm0 96.301c-25.5 0-46.301-20.801-46.301-46.301s20.801-46.301 46.301-46.301 46.301 20.801 46.301 46.301-20.801 46.301-46.301 46.301z"/>
  <path d="m50 40.102c-1 0-1.8984 0.80078-1.8984 1.8984v31.5c0 1 0.80078 1.8984 1.8984 1.8984 1.1016 0 1.8984-0.80078 1.8984-1.8984v-31.5c0-1-0.89844-1.8984-1.8984-1.8984z"/>
  <path d="m53.199 30.398c0 4.2695-6.3984 4.2695-6.3984 0 0-4.2656 6.3984-4.2656 6.3984 0"/>
 </g>
</svg>
